<svg width="19" height="19" viewBox="0 0 19 19" fill="none" xmlns="http://www.w3.org/2000/svg">
<g clip-path="url(#clip0_442_400)">
<path d="M0.684484 13.0387C0.647729 12.9468 0.608676 12.8549 0.574219 12.7607C0.608676 12.8549 0.645431 12.9468 0.684484 13.0387Z" fill="#1E1E1E"/>
<path d="M0.149259 11.1713C0.135476 11.0955 0.119396 11.0197 0.10791 10.9438C0.119396 11.0197 0.135476 11.0955 0.149259 11.1713Z" fill="#1E1E1E"/>
<path d="M0.248003 11.6537C0.229626 11.5733 0.208951 11.4929 0.192871 11.4102C0.208951 11.4906 0.229626 11.571 0.248003 11.6537Z" fill="#1E1E1E"/>
<path d="M0.075906 10.6888C0.0667173 10.6153 0.0552314 10.5441 0.0483398 10.4683C0.0552314 10.5418 0.0667173 10.6153 0.075906 10.6888Z" fill="#1E1E1E"/>
<path d="M0.0117188 9.01193C0.0140159 8.9545 0.0209075 8.89937 0.0255018 8.84424C0.0209075 8.89937 0.0163131 8.9568 0.0117188 9.01193Z" fill="#1E1E1E"/>
<path d="M0.0483398 8.52937C0.0552314 8.45586 0.0667173 8.38235 0.075906 8.30884C0.0667173 8.38235 0.0552314 8.45356 0.0483398 8.52937Z" fill="#1E1E1E"/>
<path d="M0.10791 8.05613C0.119396 7.98033 0.135476 7.90452 0.149259 7.82642C0.135476 7.90222 0.119396 7.97803 0.10791 8.05613Z" fill="#1E1E1E"/>
<path d="M0.0255018 10.1557C0.0209075 10.1006 0.0163131 10.0432 0.0117188 9.98804C0.0140159 10.0455 0.0209075 10.1006 0.0255018 10.1557Z" fill="#1E1E1E"/>
<path d="M0.370041 12.1223C0.344772 12.0373 0.319503 11.9546 0.298828 11.8696C0.3218 11.9546 0.347069 12.0373 0.370041 12.1223Z" fill="#1E1E1E"/>
<path d="M0.514395 12.5863C0.484531 12.4967 0.452371 12.4094 0.424805 12.3198C0.452371 12.4094 0.484531 12.4967 0.514395 12.5863Z" fill="#1E1E1E"/>
<path d="M1.83757 15.1131C1.76177 15.0097 1.68596 14.904 1.61475 14.7983C1.68596 14.9063 1.76177 15.0097 1.83757 15.1131Z" fill="#1E1E1E"/>
<path d="M2.12505 15.4852C2.04005 15.3819 1.95735 15.2762 1.87695 15.1682C1.95735 15.2762 2.04005 15.3796 2.12505 15.4852Z" fill="#1E1E1E"/>
<path d="M1.5667 14.7226C1.50008 14.6215 1.43346 14.5182 1.36914 14.4148C1.43346 14.5205 1.50008 14.6215 1.5667 14.7226Z" fill="#1E1E1E"/>
<path d="M0.873127 13.4799C0.82948 13.3834 0.783537 13.2869 0.742188 13.1904C0.783537 13.2892 0.827183 13.3834 0.873127 13.4799Z" fill="#1E1E1E"/>
<path d="M1.08423 13.9047C1.03369 13.806 0.980858 13.7095 0.932617 13.6084C0.980858 13.7072 1.0314 13.806 1.08423 13.9047Z" fill="#1E1E1E"/>
<path d="M1.31375 14.3206C1.25402 14.2195 1.19659 14.1207 1.13916 14.0173C1.19429 14.1207 1.25402 14.2195 1.31375 14.3206Z" fill="#1E1E1E"/>
<path d="M1.87695 3.82932C1.95735 3.72135 2.04235 3.61568 2.12735 3.51001C2.04235 3.61568 1.95735 3.72135 1.87695 3.82932Z" fill="#1E1E1E"/>
<path d="M1.36914 4.58512C1.43346 4.47945 1.50008 4.37608 1.569 4.27271C1.50008 4.37608 1.43346 4.47945 1.36914 4.58512Z" fill="#1E1E1E"/>
<path d="M9.44595 18.9978C6.99945 18.984 4.77118 18.0444 3.09424 16.5122C4.77118 18.0444 6.99945 18.984 9.44595 18.9978Z" fill="#1E1E1E"/>
<path d="M1.61475 4.20153C1.68596 4.09357 1.76177 3.99019 1.83757 3.88452C1.76177 3.98789 1.68596 4.09357 1.61475 4.20153Z" fill="#1E1E1E"/>
<path d="M2.15723 3.47336C2.24682 3.36539 2.3387 3.25743 2.43289 3.15405C2.3387 3.25972 2.24682 3.36539 2.15723 3.47336Z" fill="#1E1E1E"/>
<path d="M0.192871 7.58994C0.208951 7.50724 0.229626 7.42684 0.248003 7.34644C0.229626 7.42684 0.208951 7.50954 0.192871 7.58994Z" fill="#1E1E1E"/>
<path d="M2.76562 2.80021C2.8713 2.69224 2.98156 2.58887 3.09182 2.48779C2.98156 2.58887 2.8713 2.69454 2.76562 2.80021Z" fill="#1E1E1E"/>
<path d="M2.45361 3.12878C2.55009 3.02081 2.65117 2.91514 2.75454 2.81177C2.65117 2.91514 2.55239 3.02081 2.45361 3.12878Z" fill="#1E1E1E"/>
<path d="M3.09409 2.48555C4.77104 0.953331 6.99931 0.0160803 9.4458 0C6.99701 0.0137831 4.76874 0.951034 3.0918 2.48555H3.09409Z" fill="#1E1E1E"/>
<path d="M1.1416 4.98263C1.19673 4.87925 1.25646 4.77588 1.31848 4.6748C1.25876 4.77588 1.19903 4.87696 1.1416 4.98263Z" fill="#1E1E1E"/>
<path d="M0.424805 6.68025C0.452371 6.58836 0.484531 6.49877 0.516692 6.40918C0.486829 6.49877 0.454668 6.58836 0.424805 6.68025Z" fill="#1E1E1E"/>
<path d="M0.298828 7.13048C0.3218 7.04548 0.347069 6.96048 0.370041 6.87549C0.344772 6.96048 0.319503 7.04548 0.298828 7.13048Z" fill="#1E1E1E"/>
<path d="M0.574219 6.24154C0.608676 6.14735 0.647729 6.05317 0.684484 5.95898C0.647729 6.05317 0.608676 6.14735 0.574219 6.24154Z" fill="#1E1E1E"/>
<path d="M0.932617 5.39141C0.980858 5.29033 1.03369 5.19155 1.08423 5.09277C1.0314 5.19155 0.980858 5.29033 0.932617 5.39141Z" fill="#1E1E1E"/>
<path d="M0.744141 5.80966C0.78549 5.71089 0.831434 5.6144 0.877377 5.51562C0.831434 5.61211 0.787787 5.71089 0.744141 5.80966Z" fill="#1E1E1E"/>
<path d="M2.43059 15.8436C2.3387 15.7403 2.24682 15.6346 2.15723 15.5266C2.24452 15.6346 2.33641 15.7403 2.43059 15.8436Z" fill="#1E1E1E"/>
<path d="M3.08953 16.5098C2.97926 16.4088 2.8713 16.3054 2.76562 16.1997C2.8713 16.3054 2.97926 16.4088 3.08953 16.5098Z" fill="#1E1E1E"/>
<path d="M2.7542 16.1884C2.65312 16.085 2.55205 15.9793 2.45557 15.8713C2.55205 15.9793 2.65312 16.085 2.7542 16.1884Z" fill="#1E1E1E"/>
<path d="M9.50109 0C9.48272 0 9.46664 0 9.44826 0C7.00176 0.0137831 4.77119 0.953331 3.09425 2.48555C2.98399 2.58663 2.87372 2.6923 2.76805 2.79797C2.76346 2.80256 2.75886 2.80716 2.75656 2.81175C2.65319 2.91513 2.55441 3.0208 2.45563 3.12876C2.44874 3.13565 2.44185 3.14484 2.43496 3.15403C2.34077 3.2597 2.24889 3.36537 2.1593 3.47334C2.14781 3.48712 2.13862 3.49861 2.12943 3.51239C2.04444 3.61806 1.95944 3.72373 1.87904 3.8317C1.86526 3.85008 1.85377 3.86846 1.83999 3.88683C1.76418 3.99021 1.68837 4.09588 1.61716 4.20384C1.60108 4.22682 1.5873 4.25209 1.57122 4.27506C1.5023 4.37843 1.43568 4.4818 1.37136 4.58747C1.35299 4.61734 1.3369 4.6472 1.32082 4.67706C1.2611 4.77814 1.20137 4.87922 1.14394 4.98489C1.12556 5.02164 1.10719 5.0584 1.08881 5.09515C1.03597 5.19393 0.985436 5.29271 0.937195 5.39379C0.91652 5.43513 0.90044 5.47878 0.879765 5.52013C0.833822 5.61661 0.790175 5.71539 0.746529 5.81417C0.725854 5.86241 0.707477 5.91295 0.689099 5.96119C0.652344 6.05537 0.613292 6.14956 0.578834 6.24374C0.55816 6.29888 0.54208 6.35631 0.521405 6.41373C0.491542 6.50332 0.459381 6.59292 0.429518 6.6848C0.408843 6.74912 0.392763 6.81574 0.374385 6.88006C0.349116 6.96506 0.323847 7.05005 0.303173 7.13505C0.284795 7.20626 0.271012 7.27748 0.254932 7.34869C0.236554 7.42909 0.21588 7.51179 0.199799 7.59219C0.183719 7.67029 0.172233 7.7507 0.156153 7.8311C0.14237 7.9069 0.126289 7.98271 0.114804 8.06081C0.10102 8.14581 0.0941289 8.23081 0.082643 8.3158C0.0734542 8.38931 0.0619683 8.46052 0.0550768 8.53633C0.0435909 8.6397 0.0389965 8.74538 0.032105 8.85105C0.0275106 8.90618 0.0229162 8.96361 0.0183219 9.01874C0.00913312 9.17954 0.00683594 9.34264 0.00683594 9.50574C0.00683594 9.66884 0.0114303 9.83194 0.0183219 9.99275C0.020619 10.0502 0.0275106 10.1053 0.032105 10.1604C0.0389965 10.2661 0.045888 10.3695 0.0550768 10.4752C0.0619683 10.5487 0.0734542 10.6222 0.082643 10.6957C0.0941289 10.7807 0.103318 10.8657 0.114804 10.9507C0.126289 11.0265 0.14237 11.1023 0.156153 11.1781C0.169936 11.2585 0.183719 11.3389 0.199799 11.4193C0.21588 11.4997 0.236554 11.5801 0.254932 11.6628C0.271012 11.734 0.287092 11.8075 0.30547 11.8787C0.328442 11.9637 0.353711 12.0464 0.376682 12.1314C0.39506 12.198 0.413437 12.2624 0.431815 12.329C0.459381 12.4186 0.491542 12.5059 0.521405 12.5955C0.54208 12.6529 0.55816 12.7126 0.581132 12.7677C0.615589 12.8619 0.652344 12.9538 0.691396 13.0457C0.712071 13.0962 0.730449 13.1468 0.751123 13.1973C0.792473 13.2961 0.836119 13.3903 0.882063 13.4868C0.902737 13.5304 0.921115 13.5741 0.941789 13.6154C0.99003 13.7142 1.04057 13.813 1.0934 13.9117C1.11408 13.9485 1.13016 13.9875 1.15083 14.0243C1.20597 14.1277 1.26569 14.2265 1.32542 14.3275C1.3438 14.3574 1.35988 14.3896 1.37825 14.4217C1.44258 14.5274 1.50919 14.6285 1.57581 14.7295C1.59189 14.7548 1.60797 14.7801 1.62405 14.8053C1.69527 14.9133 1.77107 15.0167 1.84688 15.1201C1.86066 15.1384 1.87215 15.1568 1.88593 15.1752C1.96633 15.2832 2.04903 15.3865 2.13403 15.4922C2.14551 15.506 2.1547 15.5198 2.16619 15.5336C2.25348 15.6415 2.34537 15.7472 2.43955 15.8506C2.44874 15.8598 2.45563 15.8689 2.46252 15.8781C2.55901 15.9861 2.66008 16.0918 2.76116 16.1951C2.76575 16.1997 2.77035 16.2043 2.77264 16.2089C2.87831 16.3146 2.98628 16.418 3.09655 16.519C3.09655 16.519 3.09884 16.5213 3.10114 16.5236C4.77809 18.0559 7.00635 18.9954 9.45285 19.0092C9.47123 19.0092 9.48731 19.0092 9.50569 19.0092C14.7525 19.0092 19.0068 14.7548 19.0068 9.50804C19.0068 4.26127 14.7456 0 9.50109 0ZM11.7707 9.76532H10.2661V14.6101H8.03549V9.76532H6.97419V7.87015H8.03549V6.64345C8.03549 5.76593 8.45128 4.39221 10.2867 4.39221L11.9407 4.39911V6.23915H10.7416C10.544 6.23915 10.2684 6.33793 10.2684 6.75602V7.87245H11.9683L11.773 9.76762L11.7707 9.76532Z" fill="#918B88"/>
</g>
<defs>
<clipPath id="clip0_442_400">
<rect width="19" height="19" fill="white"/>
</clipPath>
</defs>
</svg>
