<svg width="82" height="82" viewBox="0 0 82 82" fill="none" xmlns="http://www.w3.org/2000/svg">
<g clip-path="url(#clip0_442_344)">
<path d="M45.2167 18.1493L45.1009 18.0666C44.7647 17.8241 44.412 17.5706 44.423 17.2619C44.423 17.1627 44.4671 17.0194 44.6545 16.8981C44.7041 16.8651 44.7482 16.8485 44.7978 16.8265C44.8088 16.7548 44.8309 16.6832 44.8695 16.6281C44.897 16.595 44.9191 16.5619 44.9411 16.5234C44.9466 16.5013 44.9521 16.4793 44.9576 16.4572C44.9576 16.4297 44.9576 16.4021 44.9576 16.3746C44.9576 16.3525 44.9521 16.3305 44.9466 16.3084C44.9466 16.2919 44.9356 16.2753 44.9301 16.2588C44.908 16.2147 44.886 16.1761 44.8639 16.1321C44.8474 16.11 44.8309 16.0824 44.8143 16.0604C44.8033 16.0439 44.7923 16.0328 44.7813 16.0218C44.7647 16.0053 44.7482 15.9832 44.7317 15.9667C44.7096 15.9447 44.6876 15.9226 44.6655 15.9006C44.4451 15.8895 44.2246 15.884 44.0097 15.884C43.6679 16.1045 43.3097 16.4297 42.9239 16.8761C42.2239 17.6753 41.4413 18.8547 40.4603 20.5743C40.1351 21.142 39.7658 21.7868 39.358 22.5033L39.3084 22.5915C38.7021 23.6442 38.0187 24.8402 37.2526 26.1905L33.1024 33.4988C33.0197 33.6421 32.9977 33.8019 33.0418 33.9562C33.0859 34.1105 33.1851 34.2373 33.3284 34.3145C33.4717 34.3916 33.6315 34.4137 33.7858 34.3641C33.9402 34.32 34.0669 34.2153 34.1441 34.0775L38.2942 26.7692C39.0714 25.4024 39.7603 24.1954 40.3721 23.1316L40.4272 23.0324C40.824 22.338 41.1823 21.7097 41.5019 21.153C41.8492 20.5468 42.1743 19.9956 42.4775 19.5216C42.8082 19.0421 43.1058 18.8106 43.453 18.7555C43.5026 18.75 43.5522 18.7445 43.5963 18.7445C43.916 18.7445 44.2577 18.8933 44.6765 19.2185C48.0055 21.7979 49.4771 26.163 48.4244 30.3517C47.548 33.835 45.5584 37.0812 42.8192 39.4953C42.6924 39.6 42.6208 39.7488 42.6097 39.9086C42.5987 40.0685 42.6538 40.2228 42.7585 40.3385C42.8633 40.4598 43.0121 40.5259 43.1719 40.5369C43.3317 40.5425 43.4861 40.4873 43.6073 40.3826C46.5284 37.8088 48.6503 34.3475 49.5818 30.6383C50.7502 25.9756 48.9976 20.9601 45.2222 18.1493H45.2167Z" fill="#800000"/>
<path d="M42.2898 16.4243C42.2071 16.292 42.0803 16.1928 41.9205 16.1542C40.6804 15.8235 39.3411 15.6361 37.9357 15.5976C37.842 15.5976 37.7538 15.5976 37.6601 15.592H37.5719C37.2082 15.592 36.8334 15.592 36.4531 15.6086C31.8455 15.8015 26.5159 19.2517 25.9482 24.4931C25.9316 24.6474 25.9316 24.8183 25.9316 24.9836C25.9427 25.0277 25.9537 25.0773 25.9647 25.1214C25.9702 25.1435 25.9812 25.16 25.9868 25.182C25.9868 25.182 25.9923 25.1986 25.9978 25.2096C25.9978 25.2206 26.0088 25.2316 26.0088 25.2372C26.0198 25.2537 26.0253 25.2757 26.0364 25.2923C26.0419 25.3088 26.0529 25.3198 26.0639 25.3364C26.1135 25.3694 26.1631 25.397 26.2127 25.4245C26.2403 25.4411 26.2678 25.4521 26.3009 25.4686C26.3505 25.4852 26.3946 25.5017 26.4442 25.5182C26.4497 25.5182 26.4607 25.5182 26.4663 25.5182C26.5159 25.5072 26.56 25.4962 26.604 25.4797C26.6261 25.4686 26.6426 25.4631 26.6647 25.4521C26.7033 25.4301 26.7418 25.408 26.7804 25.386C26.7969 25.3749 26.819 25.3639 26.8355 25.3474C26.8355 25.3474 26.8355 25.3474 26.841 25.3419C26.8796 25.3088 26.9127 25.2757 26.9458 25.2372C26.9568 25.2261 26.9733 25.2096 26.9843 25.1931C26.9843 25.1931 26.9843 25.1931 26.9898 25.182C27.0119 25.149 27.0284 25.1159 27.045 25.0828C27.045 25.0718 27.067 25.0332 27.067 25.0277C27.0725 25.0057 27.0835 24.9836 27.0891 24.9616C27.1001 24.9175 27.1166 24.8789 27.1276 24.8348C27.1276 24.7632 27.1276 24.6915 27.1387 24.6199C27.6237 20.1335 32.3691 16.9313 36.4972 16.7605C38.3325 16.6833 40.0466 16.8542 41.5843 17.262C41.7441 17.3061 41.9095 17.2896 42.0472 17.2124C42.1905 17.1353 42.2898 17.014 42.3338 16.8652C42.3779 16.7164 42.3559 16.5621 42.2732 16.4243H42.2898Z" fill="#800000"/>
<path d="M57.948 41.43C57.8819 41.2371 57.8708 41.2095 57.5512 41.3142C54.9112 42.7031 53.2302 43.0889 49.7579 43.0944C45.3928 42.9732 42.0308 40.7521 37.3736 37.6711L37.346 37.6546C36.3926 37.0263 35.4115 36.3759 34.3423 35.6925C32.6999 34.6453 30.2362 33.2895 27.7726 32.7714C27.1663 32.6446 26.5931 32.5785 26.075 32.573C25.4908 32.573 24.9507 32.6446 24.4822 32.7879C23.413 33.1076 22.5532 33.8572 22.0461 34.8933C21.0706 36.9161 21.506 39.1978 23.2201 41.0111C24.7854 42.6645 27.1443 43.7834 29.6906 44.07C33.3171 44.4833 36.7232 43.9267 39.8097 42.4276C40.4876 42.0969 40.9175 41.926 41.3915 41.926C41.7773 41.926 42.1796 42.0417 42.6922 42.3063C45.1999 43.5905 47.3715 44.1912 49.7359 44.2519C53.2687 44.2519 54.8726 43.6731 56.5701 43.0614C56.9229 42.9346 57.2701 42.8078 57.6394 42.6866C57.7055 42.6039 57.7882 42.5102 57.8708 42.4165C58.0141 42.2622 58.2677 41.9811 58.2567 41.8819C58.0582 41.7496 57.9976 41.5622 57.9535 41.43H57.948ZM38.5255 41.7441C36.4863 42.6094 34.2872 43.0448 31.9834 43.0448C31.2724 43.0448 30.5449 43.0007 29.8173 42.9181C27.6017 42.6645 25.3971 41.6284 24.0523 40.2119C22.5973 38.6797 22.2721 37.0538 23.0768 35.3894C23.4626 34.5902 23.9972 34.1272 24.8074 33.8847C25.1712 33.7745 25.5955 33.7194 26.064 33.7249C26.516 33.7249 27.012 33.7855 27.5301 33.8958C28.5001 34.0997 29.5969 34.4855 30.7929 35.0421C31.2724 35.2902 31.581 35.5106 31.6416 35.8523C31.6968 36.1389 31.559 36.4586 31.2062 36.8665C31.0023 37.1034 30.7874 37.3184 30.5669 37.5278C30.5449 37.5609 30.5283 37.5885 30.5063 37.6215C30.6275 37.4617 30.5283 37.594 30.5063 37.627C30.4842 37.6601 30.4567 37.6987 30.4346 37.7373C30.4071 37.7814 30.3905 37.8255 30.3685 37.8695C30.3299 37.9743 30.3024 38.079 30.2803 38.1892C30.2748 38.2774 30.2748 38.3656 30.2803 38.4593C30.3134 38.5144 30.3464 38.564 30.3795 38.6191C30.3961 38.6356 30.4071 38.6522 30.4236 38.6687C30.4512 38.6797 30.4732 38.6963 30.4953 38.7128C30.5394 38.7128 30.5834 38.7128 30.6275 38.7183C30.6441 38.7183 30.6606 38.7183 30.6771 38.7183C30.7433 38.6963 30.8149 38.6852 30.8811 38.6577C31.0133 38.5971 31.1401 38.5199 31.2669 38.4427C31.5314 38.1892 31.796 37.9302 32.044 37.6491C32.1101 37.5774 32.1708 37.5168 32.2259 37.4507C32.7219 36.9105 33.24 36.3484 34.4084 37.109C35.2186 37.6381 35.9902 38.1451 36.7398 38.6412C37.4508 39.1096 38.1177 39.5561 38.779 39.986C39.3247 40.3497 39.5341 40.6143 39.5065 40.9064C39.479 41.2095 39.1814 41.4575 38.52 41.7441H38.5255Z" fill="#800000"/>
<path d="M58.7254 41.2921C58.6151 41.1543 58.4498 41.0717 58.2734 41.0662C58.1742 41.0662 58.0805 41.0882 57.9923 41.1378C55.3523 42.1354 50.0613 45.1557 44.0758 54.2607C43.701 54.8063 43.4199 55.0102 43.1885 54.9165C42.9129 54.8008 42.9625 54.3599 43.0562 53.8969C43.5302 51.6152 43.938 49.6531 44.3624 48.0272C44.8088 46.3351 45.1946 45.2604 45.6466 44.4392C45.6741 44.3841 45.6962 44.351 45.7127 44.3179C44.6049 44.0975 43.5743 43.5629 43.227 43.37C43.216 43.3865 43.1995 43.403 43.1664 43.4416C42.5216 44.1802 41.8216 45.2549 40.824 47.0241L34.9267 57.5125C33.3008 60.147 32.0552 61.8225 30.8758 62.9578C29.5696 64.2144 28.3515 64.8262 26.9296 64.9309C26.3784 64.975 25.8879 64.9364 25.4304 64.8483C25.3312 64.8483 25.232 64.8372 25.1493 64.7931C25.0832 64.7931 25.0171 64.7931 24.9454 64.7821C24.9013 64.7766 24.8517 64.7656 24.8076 64.7546H24.7966C24.7635 64.7601 24.7305 64.7656 24.7029 64.7766C24.6974 64.7766 24.6258 64.7987 24.5762 64.8152C24.5651 64.8152 24.5596 64.8262 24.5486 64.8262C24.5265 64.8372 24.5045 64.8538 24.4825 64.8648C24.4714 64.8758 24.4549 64.8868 24.4439 64.8979C24.4384 64.9034 24.4329 64.9089 24.4273 64.9144C24.4163 64.9309 24.4053 64.942 24.3998 64.9585C24.3888 64.975 24.3832 64.9916 24.3722 65.0081C24.3722 65.0191 24.3667 65.0246 24.3612 65.0357C24.3447 65.0797 24.3336 65.1238 24.3281 65.1679C24.3281 65.1789 24.3281 65.1845 24.3281 65.1955C24.3281 65.2726 24.3226 65.3553 24.3281 65.427C24.3281 65.427 24.3281 65.427 24.3281 65.4325C24.3336 65.4655 24.3447 65.4986 24.3502 65.5262C24.3502 65.5372 24.3612 65.5648 24.3722 65.5868C24.3722 65.5978 24.3832 65.6088 24.3832 65.6144C24.3998 65.6474 24.4218 65.6805 24.4439 65.7081C24.4439 65.7081 24.4439 65.7081 24.4494 65.7136C25.221 65.9947 26.0753 66.1324 27.0177 66.0663C28.6822 65.9395 30.2034 65.19 31.6805 63.7735C32.9481 62.5555 34.2102 60.8579 35.9133 58.1022L41.8271 47.5807C42.1743 46.9635 42.483 46.4454 42.7696 45.9879C43.0121 45.5801 43.2987 45.3927 43.5247 45.4919C43.7506 45.5911 43.7892 45.8832 43.6404 46.3517C43.5136 46.7595 43.3869 47.206 43.2491 47.7185C42.8027 49.4051 42.3948 51.3837 41.9153 53.682H41.761L41.9098 53.715C41.4964 55.6992 41.0335 57.9479 40.4603 60.395C40.4382 60.4611 40.4272 60.5162 40.4272 60.5658L40.2729 60.5989H40.4217C40.4217 60.88 40.6201 61.117 40.8957 61.1666C41.1713 61.2162 41.4413 61.0619 41.5405 60.8028C46.5946 51.2569 51.4337 46.5556 54.6083 44.2904C55.2311 43.8495 55.5838 43.7392 55.7933 43.9266C56.0082 44.1195 55.931 44.5329 55.5452 45.2218L50.6235 54.0127C48.8873 57.0164 48.3086 59.5958 48.8984 61.6902C49.4054 63.4814 50.8605 64.8703 52.8887 65.4986C54.498 65.9946 56.0743 65.7025 57.3971 64.9695C57.4191 64.9254 57.4687 64.8097 57.5073 64.7546C57.5073 64.7435 57.5183 64.738 57.5239 64.7325C57.5294 64.7105 57.5349 64.6939 57.5404 64.6719C57.5514 64.6278 57.5624 64.5837 57.5735 64.5396C57.5735 64.5286 57.5735 64.5176 57.5735 64.5065C57.5735 64.4514 57.5735 64.4018 57.5735 64.3467C57.5735 64.3247 57.5569 64.2585 57.5624 64.2806C57.5569 64.2585 57.5459 64.2365 57.5459 64.2144C57.5459 64.2089 57.5404 64.1979 57.5349 64.1924C57.5183 64.1814 57.5018 64.1648 57.5018 64.1483C57.4908 64.1428 57.4798 64.1318 57.4687 64.1263C57.4522 64.1152 57.4247 64.1097 57.4081 64.0932C57.3916 64.0822 57.3916 64.0822 57.3971 64.0822C57.3254 64.0656 57.2318 64.0546 57.1987 64.0436C57.1877 64.0436 57.1711 64.0436 57.1601 64.0436C57.116 64.0436 57.0719 64.0381 57.0278 64.0326C56.9231 64.0326 56.8184 64.0326 56.7137 64.0326C56.6696 64.0326 56.631 64.0326 56.5869 64.0326C55.5397 64.5506 54.3548 64.7491 53.2304 64.4018C51.5053 63.8672 50.4195 62.8531 50.0062 61.3815C49.659 60.158 49.659 57.9864 51.6155 54.5969L57.6286 43.8495L58.6978 42.0031C58.8687 41.7771 58.8687 41.4795 58.7088 41.2756L58.7254 41.2921Z" fill="#800000"/>
<path d="M41 82C18.3919 82 0 63.6081 0 41C0 18.3919 18.3919 0 41 0C63.6081 0 82 18.3919 82 41C82 63.6081 63.6081 82 41 82ZM41 0.826724C18.8493 0.826724 0.826724 18.8493 0.826724 41C0.826724 63.1507 18.8493 81.1733 41 81.1733C63.1507 81.1733 81.1733 63.1507 81.1733 41C81.1733 18.8493 63.1507 0.826724 41 0.826724Z" fill="#800000"/>
<path d="M41.044 79.5088C19.8082 79.5088 2.53516 62.2358 2.53516 41C2.53516 19.7642 19.8082 2.49121 41.044 2.49121C62.2797 2.49121 79.5527 19.7642 79.5527 41C79.5527 62.2358 62.2797 79.5088 41.044 79.5088ZM41.044 3.31242C20.2656 3.31793 3.36188 20.2217 3.36188 41C3.36188 61.7783 20.2656 78.6821 41.044 78.6821C61.8223 78.6821 78.726 61.7783 78.726 41C78.726 20.2217 61.8223 3.31793 41.044 3.31793V3.31242Z" fill="#800000"/>
</g>
<defs>
<clipPath id="clip0_442_344">
<rect width="82" height="82" fill="white"/>
</clipPath>
</defs>
</svg>
