<svg width="19" height="19" viewBox="0 0 19 19" fill="none" xmlns="http://www.w3.org/2000/svg">
<g clip-path="url(#clip0_442_362)">
<path d="M1.1416 4.98268C1.19903 4.87701 1.25876 4.77364 1.32078 4.66797C1.25876 4.77134 1.19903 4.87472 1.1416 4.98268Z" fill="#1E1E1E"/>
<path d="M0.932617 5.39156C0.983155 5.28819 1.03599 5.18711 1.08883 5.08374C1.03599 5.18482 0.980858 5.28819 0.932617 5.39156Z" fill="#1E1E1E"/>
<path d="M1.84217 15.1199C1.76406 15.0143 1.68826 14.9086 1.61475 14.7983C1.68826 14.9063 1.76406 15.0143 1.84217 15.1199Z" fill="#1E1E1E"/>
<path d="M0.0827976 10.737C0.0713117 10.6474 0.0575286 10.5579 0.0483398 10.4683C0.0575286 10.5579 0.0713117 10.6474 0.0827976 10.737Z" fill="#1E1E1E"/>
<path d="M1.87695 3.82952C1.95965 3.71925 2.04465 3.61129 2.12964 3.50562C2.04235 3.61129 1.95735 3.71925 1.87695 3.82952Z" fill="#1E1E1E"/>
<path d="M2.12964 15.4921C2.04235 15.3864 1.95735 15.2785 1.87695 15.1682C1.95965 15.2785 2.04465 15.3864 2.12964 15.4921Z" fill="#1E1E1E"/>
<path d="M1.61475 4.20149C1.68826 4.09352 1.76406 3.98555 1.84217 3.87988C1.76406 3.98555 1.68826 4.09122 1.61475 4.20149Z" fill="#1E1E1E"/>
<path d="M0.0343465 10.2729C0.027455 10.1787 0.0182662 10.0845 0.0136719 9.98804C0.0182662 10.0845 0.027455 10.1787 0.0343465 10.2729Z" fill="#1E1E1E"/>
<path d="M1.32078 14.332C1.25876 14.2287 1.19903 14.1253 1.1416 14.0173C1.19903 14.123 1.25876 14.2264 1.32078 14.332Z" fill="#1E1E1E"/>
<path d="M1.36914 4.58518C1.43346 4.47721 1.50238 4.37154 1.57359 4.26587C1.50467 4.37154 1.43576 4.47721 1.36914 4.58518Z" fill="#1E1E1E"/>
<path d="M0.298828 7.1305C0.3218 7.03631 0.351663 6.94443 0.376932 6.85254C0.349366 6.94443 0.3218 7.03631 0.298828 7.1305Z" fill="#1E1E1E"/>
<path d="M0.0483398 8.53171C0.0575286 8.44212 0.0713117 8.35253 0.0827976 8.26294C0.0713117 8.35253 0.0575286 8.44212 0.0483398 8.53171Z" fill="#1E1E1E"/>
<path d="M0.744141 5.81187C0.787787 5.7085 0.833731 5.60742 0.881972 5.50635C0.836028 5.60742 0.787787 5.7085 0.744141 5.81187Z" fill="#1E1E1E"/>
<path d="M0.10791 8.05617C0.121693 7.96658 0.140071 7.87929 0.156151 7.79199C0.140071 7.87929 0.121693 7.96658 0.10791 8.05617Z" fill="#1E1E1E"/>
<path d="M0.192871 7.58992C0.211249 7.49803 0.23422 7.40844 0.254895 7.31885C0.23422 7.40844 0.211249 7.50033 0.192871 7.58992Z" fill="#1E1E1E"/>
<path d="M1.57115 14.7319C1.50223 14.6262 1.43332 14.5206 1.3667 14.4126C1.43102 14.5206 1.49994 14.6262 1.57115 14.7319Z" fill="#1E1E1E"/>
<path d="M0.574219 6.2415C0.610974 6.14043 0.652323 6.04165 0.691375 5.94287C0.650026 6.04165 0.610974 6.14043 0.574219 6.2415Z" fill="#1E1E1E"/>
<path d="M0.0117188 9.0119C0.0163131 8.91542 0.0255018 8.82124 0.0323934 8.72705C0.0255018 8.82124 0.0163131 8.91542 0.0117188 9.0119Z" fill="#1E1E1E"/>
<path d="M0.424805 6.68031C0.454668 6.58383 0.489126 6.48735 0.521286 6.39087C0.489126 6.48735 0.454668 6.58154 0.424805 6.68031Z" fill="#1E1E1E"/>
<path d="M2.43289 15.8459C2.3387 15.7403 2.24682 15.6346 2.15723 15.5266C2.24682 15.6346 2.3387 15.7425 2.43289 15.8459Z" fill="#1E1E1E"/>
<path d="M0.00918873 9.17944C0.00459437 9.28511 0 9.39308 0 9.50105C0 9.60902 0.00459437 9.71469 0.00918873 9.82265C0.00459437 9.71698 0 9.60902 0 9.50105C0 9.39308 0.00459437 9.28741 0.00918873 9.17944Z" fill="#1E1E1E"/>
<path d="M2.75914 16.1929C2.65577 16.0873 2.55239 15.9816 2.45361 15.8713C2.55239 15.9816 2.65577 16.0873 2.75914 16.1929Z" fill="#1E1E1E"/>
<path d="M0.879674 13.4915C0.833731 13.3904 0.78549 13.2916 0.744141 13.1882C0.787787 13.2893 0.833731 13.3904 0.879674 13.4915Z" fill="#1E1E1E"/>
<path d="M9.44813 18.9977C6.83623 18.9839 4.47473 17.9157 2.76562 16.1997C4.48621 17.9295 6.86839 19 9.50097 19C12.1335 19 14.4996 17.9364 16.2179 16.2181C14.4996 17.9364 12.1243 19 9.50097 19C9.48259 19 9.46651 19 9.44813 19V18.9977Z" fill="#1E1E1E"/>
<path d="M0.521286 12.6047C0.489126 12.5105 0.454668 12.4163 0.424805 12.3198C0.454668 12.4163 0.489126 12.5105 0.521286 12.6047Z" fill="#1E1E1E"/>
<path d="M0.254895 11.6812C0.23422 11.5916 0.211249 11.502 0.192871 11.4102C0.211249 11.502 0.23422 11.5893 0.254895 11.6812Z" fill="#1E1E1E"/>
<path d="M0.691375 13.0572C0.652323 12.9584 0.610974 12.8596 0.574219 12.7585C0.610974 12.8596 0.652323 12.9584 0.691375 13.0572Z" fill="#1E1E1E"/>
<path d="M2.45361 3.12888C2.55239 3.02091 2.65347 2.91294 2.75684 2.80957C2.65347 2.91294 2.55239 3.02091 2.45361 3.12888Z" fill="#1E1E1E"/>
<path d="M2.15723 3.47336C2.24682 3.36539 2.3387 3.25743 2.43289 3.15405C2.3387 3.25972 2.24682 3.36539 2.15723 3.47336Z" fill="#1E1E1E"/>
<path d="M18.4236 12.7654C18.318 13.0571 18.1962 13.3397 18.063 13.6176C18.1962 13.3397 18.3157 13.0571 18.4236 12.7654Z" fill="#1E1E1E"/>
<path d="M1.08883 13.9139C1.03599 13.8128 0.983155 13.7118 0.932617 13.6084C0.983155 13.7118 1.03599 13.8128 1.08883 13.9139Z" fill="#1E1E1E"/>
<path d="M0.376932 12.1476C0.349366 12.0557 0.3218 11.9638 0.298828 11.8696C0.3218 11.9638 0.351663 12.0557 0.376932 12.1476Z" fill="#1E1E1E"/>
<path d="M2.76562 2.80027C4.47473 1.08197 6.83623 0.0160803 9.44583 0C6.83623 0.0160803 4.47473 1.08197 2.76562 2.80027Z" fill="#1E1E1E"/>
<path d="M17.2219 15.0281C17.1162 15.1774 17.006 15.3221 16.8911 15.4645C17.006 15.3221 17.1162 15.1774 17.2219 15.0281Z" fill="#1E1E1E"/>
<path d="M0.156295 11.2057C0.140215 11.1184 0.124135 11.0311 0.110352 10.9438C0.124135 11.0311 0.140215 11.1184 0.156295 11.2057Z" fill="#1E1E1E"/>
<path d="M17.8536 4.9711C17.3413 4.02926 16.6751 3.1839 15.8872 2.46717C15.662 2.26273 15.4277 2.06976 15.1842 1.88599C13.5992 0.702938 11.6305 0 9.501 0C9.501 0 9.49641 0 9.49411 0C9.47803 0 9.46425 0 9.44817 0C6.83627 0.0160803 4.47477 1.08197 2.76566 2.80027C2.76337 2.80256 2.75877 2.80716 2.75648 2.80945C2.6531 2.91283 2.55203 3.0208 2.45325 3.12876C2.44636 3.13565 2.43946 3.14484 2.43257 3.15174C2.33839 3.25741 2.2465 3.36308 2.15691 3.47104C2.14772 3.48253 2.13853 3.49402 2.12934 3.5055C2.04205 3.61117 1.95706 3.71914 1.87665 3.8294C1.86517 3.84548 1.85368 3.86386 1.8399 3.87994C1.7618 3.98561 1.68599 4.09128 1.61248 4.20155C1.5987 4.22222 1.58491 4.24519 1.57113 4.26817C1.50221 4.37384 1.4333 4.47951 1.36668 4.58747C1.3506 4.61504 1.33452 4.64261 1.31844 4.67017C1.25641 4.77355 1.19669 4.87692 1.13926 4.98489C1.12088 5.01934 1.1048 5.0538 1.08642 5.08596C1.03359 5.18704 0.978456 5.29041 0.930215 5.39379C0.911837 5.43054 0.895757 5.46959 0.87738 5.50864C0.831436 5.60972 0.783195 5.7108 0.739549 5.81417C0.721171 5.85782 0.705091 5.90146 0.689011 5.94511C0.647661 6.04389 0.608609 6.14267 0.571854 6.24374C0.553477 6.29428 0.537397 6.34482 0.521316 6.39536C0.489156 6.49184 0.454698 6.58602 0.424835 6.6848C0.406457 6.74223 0.392674 6.79966 0.376594 6.85709C0.349028 6.94898 0.321461 7.04087 0.29849 7.13505C0.282409 7.19707 0.270923 7.2591 0.254843 7.32112C0.234168 7.41071 0.211197 7.5026 0.192819 7.59219C0.179036 7.65881 0.169847 7.72772 0.156064 7.79434C0.139984 7.88163 0.121606 7.96893 0.107823 8.05852C0.0963375 8.12743 0.0917431 8.19635 0.0825544 8.26526C0.0710684 8.35485 0.0572853 8.44444 0.0480966 8.53403C0.0412051 8.59836 0.0389079 8.66497 0.0320163 8.73159C0.0251248 8.82578 0.0159361 8.91996 0.0113417 9.01644C0.00904451 9.07158 0.00904451 9.12901 0.00674732 9.18414C0.00215296 9.28981 -0.00244141 9.39778 -0.00244141 9.50574C-0.00244141 9.61371 0.00215296 9.71938 0.00674732 9.82735C0.00674732 9.88248 0.00674733 9.93991 0.0113417 9.99504C0.0159361 10.0915 0.0251248 10.1857 0.0320163 10.2799C0.0366107 10.3465 0.0412051 10.4108 0.0480966 10.4775C0.0572853 10.567 0.0710684 10.6566 0.0825544 10.7462C0.0917431 10.8151 0.0986346 10.8841 0.107823 10.953C0.121606 11.0403 0.137687 11.1276 0.153767 11.2148C0.165253 11.2838 0.176739 11.3527 0.190522 11.4193C0.208899 11.5112 0.231871 11.5985 0.252546 11.6904C0.266329 11.7524 0.280112 11.8167 0.296192 11.8787C0.319164 11.9729 0.349028 12.0648 0.374297 12.1567C0.390377 12.2141 0.406457 12.2716 0.422537 12.329C0.452401 12.4255 0.486859 12.5196 0.519019 12.6138C0.537397 12.6644 0.553477 12.7172 0.571854 12.7677C0.608609 12.8688 0.649958 12.9676 0.689011 13.0664C0.707388 13.11 0.723468 13.1537 0.741846 13.1973C0.785492 13.2984 0.831436 13.3995 0.87738 13.5005C0.895757 13.5396 0.911837 13.5786 0.930215 13.6177C0.980753 13.7211 1.03359 13.8222 1.08642 13.9232C1.1048 13.9577 1.12088 13.9921 1.13926 14.0266C1.19669 14.1323 1.25641 14.2356 1.31844 14.3413C1.33452 14.3689 1.3506 14.3964 1.36668 14.424C1.431 14.532 1.49992 14.6376 1.57113 14.7433C1.58491 14.764 1.5987 14.787 1.61248 14.8099C1.68599 14.9179 1.7618 15.0259 1.8399 15.1315C1.85139 15.1476 1.86287 15.166 1.87665 15.1821C1.95935 15.2923 2.04435 15.4003 2.12934 15.506C2.13853 15.5175 2.14772 15.529 2.15691 15.5404C2.2465 15.6484 2.33839 15.7564 2.43257 15.8598C2.43946 15.8666 2.44636 15.8758 2.45325 15.8827C2.55203 15.993 2.6554 16.0987 2.75877 16.2043C2.75877 16.2043 2.76337 16.2089 2.76566 16.2112C4.47477 17.9295 6.83627 18.9954 9.44817 19.0092C9.46655 19.0092 9.48263 19.0092 9.501 19.0092C12.1244 19.0092 14.4997 17.9456 16.218 16.2273C16.4569 15.9884 16.6797 15.738 16.891 15.4761C17.0059 15.3337 17.1162 15.189 17.2218 15.0397C17.4516 14.7203 17.6629 14.3873 17.8536 14.0381C17.9271 13.9026 17.996 13.767 18.0626 13.6292C18.1958 13.3512 18.3153 13.0687 18.4233 12.7769C18.7954 11.7593 18.9999 10.6589 18.9999 9.51034C18.9999 7.87015 18.5841 6.32874 17.8536 4.98259V4.9711ZM7.72069 13.5764C5.63944 13.5764 3.9556 11.8925 3.9556 9.81127C3.9556 7.73002 5.63944 6.04619 7.72069 6.04619C8.73834 6.04619 9.5883 6.41833 10.243 7.02938L9.22075 8.01487C8.94049 7.7461 8.45119 7.43368 7.72069 7.43368C6.43426 7.43368 5.38675 8.49958 5.38675 9.81127C5.38675 11.123 6.43656 12.1889 7.72069 12.1889C9.21156 12.1889 9.76977 11.1184 9.85707 10.5647H7.72069V9.27373H11.2767C11.3089 9.4621 11.3365 9.65047 11.3365 9.89856C11.3365 12.051 9.89382 13.5786 7.72069 13.5786V13.5764ZM15.7884 10.3488H14.7133V11.4239H13.6382V10.3488H12.5631V9.27373H13.6382V8.19865H14.7133V9.27373H15.7884V10.3488Z" fill="#918B88"/>
</g>
<defs>
<clipPath id="clip0_442_362">
<rect width="19" height="19" fill="white"/>
</clipPath>
</defs>
</svg>
