<svg width="215" height="215" viewBox="0 0 215 215" fill="none" xmlns="http://www.w3.org/2000/svg">
<circle cx="107.5" cy="107.5" r="107.5" fill="#630708"/>
<g clip-path="url(#clip0_315_1079)">
<path d="M112.473 71.9788L112.333 71.8709C111.915 71.5639 111.48 71.2403 111.489 70.8587C111.489 70.7342 111.546 70.5517 111.776 70.4023C111.841 70.3608 111.899 70.3442 111.956 70.311C111.972 70.2198 111.997 70.1285 112.046 70.0621C112.079 70.0206 112.104 69.9791 112.137 69.9294C112.137 69.9045 112.153 69.8713 112.161 69.8464C112.161 69.8132 112.161 69.78 112.161 69.7385C112.161 69.7136 112.153 69.6887 112.145 69.6555C112.145 69.6389 112.128 69.6141 112.128 69.5975C112.104 69.5477 112.071 69.4896 112.046 69.4398C112.03 69.4066 112.005 69.3817 111.989 69.3485C111.972 69.3319 111.956 69.307 111.948 69.2988C111.923 69.2739 111.907 69.249 111.882 69.2241C111.858 69.1992 111.825 69.1743 111.8 69.1411C111.53 69.1245 111.251 69.1245 110.98 69.1162C110.554 69.3983 110.111 69.8049 109.627 70.3608C108.758 71.3731 107.782 72.85 106.56 75.0156C106.158 75.7292 105.698 76.5423 105.19 77.4468L105.132 77.5546C104.378 78.8822 103.533 80.384 102.574 82.085L97.4149 91.2868C97.3083 91.461 97.2837 91.6684 97.3329 91.8593C97.3821 92.0501 97.5133 92.2161 97.6856 92.3156C97.8578 92.4152 98.0628 92.4401 98.2515 92.382C98.4483 92.3239 98.6041 92.1995 98.7025 92.0169L103.869 82.8152C104.837 81.0893 105.698 79.5792 106.453 78.235L106.527 78.1106C107.019 77.2393 107.47 76.4511 107.864 75.7458C108.29 74.9824 108.7 74.2938 109.077 73.6881C109.487 73.0823 109.865 72.7919 110.291 72.7256C110.349 72.7173 110.414 72.709 110.472 72.709C110.865 72.709 111.292 72.8998 111.817 73.3064C115.958 76.5506 117.787 82.0518 116.483 87.3206C115.392 91.7099 112.916 95.7922 109.504 98.8374C109.348 98.9701 109.258 99.1527 109.25 99.3518C109.233 99.5509 109.299 99.7418 109.438 99.8911C109.569 100.04 109.758 100.132 109.955 100.14C110.152 100.148 110.349 100.082 110.496 99.9492C114.129 96.7049 116.77 92.3488 117.927 87.6774C119.387 81.8112 117.205 75.4886 112.497 71.9456L112.473 71.9788Z" fill="#F7F7F7"/>
<path d="M108.823 69.805C108.725 69.639 108.561 69.5146 108.364 69.4648C106.822 69.0499 105.149 68.8176 103.402 68.7678C103.287 68.7678 103.172 68.7678 103.058 68.7678H102.951C102.5 68.7678 102.032 68.7678 101.557 68.7927C95.8157 69.0333 89.1889 73.3812 88.4836 79.9859C88.459 80.185 88.4672 80.3924 88.459 80.5999C88.4754 80.6579 88.4836 80.716 88.5 80.7741C88.5082 80.799 88.5164 80.8239 88.5246 80.8488C88.5246 80.8488 88.5246 80.8654 88.541 80.882C88.541 80.8986 88.5492 80.9069 88.5574 80.9152C88.5656 80.9401 88.582 80.9649 88.5902 80.9898C88.5984 81.0064 88.6148 81.023 88.623 81.0479C88.6804 81.0894 88.746 81.1226 88.8116 81.1641C88.8445 81.1807 88.8855 81.1973 88.9183 81.2222C88.9757 81.2471 89.0331 81.2637 89.0987 81.2802C89.1069 81.2802 89.1151 81.2802 89.1315 81.2802C89.1889 81.2719 89.2463 81.2554 89.3037 81.2305C89.3283 81.2139 89.3529 81.2056 89.3775 81.1973C89.4268 81.1724 89.476 81.1392 89.517 81.1143C89.5416 81.0977 89.5662 81.0811 89.5826 81.0645C89.6318 81.023 89.6728 80.9815 89.7138 80.9318C89.7302 80.9152 89.7466 80.8986 89.763 80.8737C89.763 80.8737 89.763 80.8737 89.763 80.8571C89.7876 80.8156 89.8122 80.7741 89.8286 80.7326C89.8286 80.716 89.8532 80.6745 89.8614 80.6579C89.8696 80.6331 89.8778 80.5999 89.886 80.575C89.9024 80.5252 89.9188 80.4671 89.9352 80.4173C89.9352 80.326 89.9352 80.2348 89.9516 80.1435C90.5586 74.493 96.4636 70.4605 101.606 70.2531C103.886 70.1535 106.018 70.3692 107.937 70.8836C108.134 70.9417 108.339 70.9168 108.52 70.8256C108.7 70.7343 108.823 70.5766 108.881 70.3858C108.938 70.195 108.905 70.0041 108.807 69.8299L108.823 69.805Z" fill="#F7F7F7"/>
<path d="M128.318 101.293C128.236 101.053 128.228 101.02 127.826 101.144C124.545 102.895 122.454 103.384 118.124 103.384C112.694 103.235 108.503 100.431 102.713 96.5557L102.68 96.5308C101.499 95.7426 100.269 94.9211 98.9404 94.0582C96.8983 92.7389 93.8309 91.0297 90.7636 90.3825C90.0091 90.2248 89.2955 90.1335 88.6476 90.1335C87.9177 90.1335 87.2534 90.2248 86.6629 90.3991C85.3342 90.8056 84.2599 91.7432 83.6365 93.0542C82.4227 95.6015 82.964 98.4807 85.0964 100.754C87.0483 102.837 89.9845 104.247 93.1502 104.604C97.661 105.119 101.901 104.422 105.748 102.538C106.592 102.115 107.125 101.908 107.716 101.908C108.2 101.908 108.692 102.057 109.332 102.389C112.448 104.007 115.155 104.762 118.099 104.836C122.495 104.836 124.488 104.106 126.604 103.335C127.039 103.177 127.473 103.019 127.933 102.862C128.015 102.754 128.113 102.638 128.22 102.522C128.392 102.331 128.712 101.974 128.695 101.849C128.449 101.683 128.375 101.451 128.318 101.285V101.293ZM104.14 101.683C101.606 102.77 98.8666 103.326 95.9961 103.326C95.1104 103.326 94.2082 103.277 93.2978 103.169C90.5422 102.853 87.7947 101.542 86.1216 99.7585C84.3091 97.8252 83.9072 95.784 84.9078 93.6848C85.3917 92.6808 86.056 92.1 87.0565 91.793C87.5076 91.652 88.0407 91.5856 88.623 91.5939C89.1889 91.5939 89.804 91.6686 90.4519 91.8096C91.6576 92.0668 93.019 92.5481 94.5116 93.2534C95.1104 93.5687 95.4876 93.8425 95.5696 94.2739C95.6352 94.639 95.463 95.0373 95.0283 95.5517C94.7741 95.8504 94.5035 96.1242 94.2328 96.3898C94.2082 96.4312 94.1918 96.4727 94.159 96.5059C94.3148 96.3068 94.1918 96.4727 94.159 96.5142C94.1262 96.5557 94.1016 96.6055 94.0688 96.6553C94.036 96.7134 94.0114 96.7714 93.9868 96.8212C93.9375 96.954 93.9047 97.0867 93.8719 97.2278C93.8637 97.344 93.8637 97.4518 93.8719 97.568C93.9129 97.6344 93.954 97.7007 93.995 97.7671C94.0114 97.7837 94.0278 97.8086 94.0524 97.8252C94.0852 97.8418 94.1098 97.8667 94.1426 97.875C94.2 97.875 94.2492 97.875 94.3066 97.875C94.3312 97.875 94.3476 97.875 94.3722 97.875C94.4542 97.8501 94.5445 97.8335 94.6265 97.8003C94.7905 97.7256 94.9463 97.6261 95.1022 97.5265C95.4302 97.2112 95.7583 96.8876 96.0699 96.5225C96.1519 96.4312 96.2258 96.3566 96.2996 96.2736C96.9229 95.5932 97.5626 94.8879 99.0142 95.8421C100.023 96.5059 100.983 97.1531 101.909 97.7754C102.795 98.3645 103.623 98.9287 104.452 99.4681C105.124 99.9244 105.387 100.256 105.354 100.621C105.321 101.003 104.952 101.318 104.124 101.675L104.14 101.683Z" fill="#F7F7F7"/>
<path d="M129.286 101.119C129.146 100.945 128.949 100.837 128.728 100.837C128.605 100.837 128.482 100.87 128.384 100.928C125.095 102.181 118.509 105.982 111.054 117.457C110.586 118.137 110.234 118.403 109.947 118.278C109.602 118.129 109.668 117.573 109.783 116.992C110.373 114.113 110.882 111.649 111.415 109.599C111.972 107.467 112.448 106.114 113.014 105.085C113.055 105.019 113.08 104.969 113.096 104.936C111.718 104.662 110.439 103.99 110.004 103.75C109.988 103.766 109.971 103.791 109.93 103.841C109.127 104.77 108.257 106.123 107.011 108.355L99.6703 121.564C97.6445 124.883 96.0945 126.999 94.6346 128.418C93.0107 130.002 91.4935 130.766 89.722 130.898C89.0412 130.948 88.4261 130.899 87.8602 130.791C87.7372 130.791 87.6142 130.774 87.5076 130.724C87.4255 130.724 87.3435 130.724 87.2533 130.708C87.1959 130.708 87.1385 130.683 87.0811 130.674C87.0811 130.674 87.0729 130.674 87.0647 130.674C87.0237 130.674 86.9827 130.691 86.9499 130.699C86.9417 130.699 86.8597 130.724 86.794 130.749C86.7858 130.749 86.7694 130.757 86.7612 130.766C86.7366 130.782 86.7038 130.799 86.6792 130.816C86.6628 130.832 86.6464 130.84 86.63 130.857C86.63 130.857 86.6136 130.874 86.6054 130.882C86.589 130.898 86.5808 130.915 86.5726 130.94C86.5644 130.965 86.548 130.981 86.5398 131.006C86.5398 131.015 86.5398 131.031 86.5316 131.04C86.5152 131.098 86.4988 131.147 86.4906 131.206C86.4906 131.214 86.4906 131.23 86.4906 131.239C86.4906 131.338 86.4824 131.438 86.4906 131.529C86.4906 131.529 86.4906 131.529 86.4906 131.537C86.4988 131.579 86.507 131.62 86.5234 131.662C86.5234 131.678 86.5398 131.712 86.548 131.737C86.548 131.753 86.5644 131.761 86.5644 131.77C86.589 131.811 86.6136 131.853 86.6382 131.894C86.6382 131.894 86.6382 131.894 86.6464 131.902C87.606 132.259 88.6722 132.434 89.845 132.342C91.9117 132.185 93.8145 131.239 95.6434 129.455C97.2181 127.92 98.7927 125.787 100.909 122.311L108.274 109.06C108.708 108.288 109.086 107.633 109.446 107.052C109.75 106.537 110.103 106.305 110.381 106.43C110.66 106.554 110.709 106.919 110.529 107.517C110.373 108.031 110.209 108.595 110.045 109.234C109.487 111.358 108.979 113.856 108.388 116.743H108.2L108.38 116.785C107.872 119.282 107.289 122.112 106.576 125.198C106.551 125.281 106.535 125.348 106.535 125.414L106.346 125.455H106.535C106.535 125.804 106.781 126.111 107.125 126.169C107.47 126.235 107.806 126.036 107.929 125.713C114.22 113.69 120.248 107.774 124.193 104.919C124.964 104.364 125.406 104.222 125.669 104.463C125.94 104.712 125.841 105.226 125.365 106.098L119.239 117.166C117.082 120.95 116.36 124.203 117.09 126.833C117.722 129.09 119.534 130.832 122.06 131.629C124.061 132.259 126.03 131.886 127.67 130.965C127.703 130.915 127.76 130.766 127.809 130.691C127.809 130.683 127.826 130.666 127.834 130.658C127.834 130.633 127.85 130.608 127.859 130.583C127.875 130.533 127.883 130.475 127.9 130.417C127.9 130.401 127.9 130.384 127.9 130.376C127.9 130.309 127.9 130.243 127.9 130.177C127.9 130.152 127.875 130.069 127.891 130.094C127.891 130.069 127.875 130.036 127.867 130.011C127.867 130.002 127.859 129.994 127.85 129.986C127.826 129.969 127.809 129.953 127.809 129.928C127.793 129.919 127.785 129.911 127.768 129.903C127.744 129.886 127.719 129.878 127.695 129.861C127.678 129.853 127.678 129.845 127.678 129.845C127.588 129.82 127.473 129.812 127.432 129.803C127.416 129.803 127.399 129.803 127.383 129.803C127.326 129.803 127.268 129.795 127.219 129.795C127.088 129.795 126.956 129.795 126.833 129.795C126.784 129.795 126.727 129.795 126.678 129.795C125.374 130.442 123.897 130.699 122.495 130.26C120.346 129.588 119.001 128.31 118.484 126.451C118.058 124.908 118.058 122.178 120.494 117.905L127.982 104.372L129.31 102.049C129.524 101.758 129.524 101.393 129.319 101.128L129.286 101.119Z" fill="#F7F7F7"/>
<path d="M106.885 193.378C153.766 193.378 191.77 154.929 191.77 107.5C191.77 60.0711 153.766 21.6223 106.885 21.6223C60.0043 21.6223 22 60.0711 22 107.5C22 154.929 60.0043 193.378 106.885 193.378Z" stroke="#F7F7F7" stroke-width="1.5" stroke-miterlimit="10"/>
<path d="M40.71 142.523L39.7177 140.466C39.2666 139.536 39.0697 138.897 39.1272 138.225C39.1928 137.47 39.5618 136.898 40.2425 136.558C41.1119 136.126 41.8828 136.408 42.4077 136.931H42.4241C42.2027 135.919 42.5143 135.056 43.4821 134.574C44.2038 134.218 44.983 134.226 45.6473 134.599C46.287 134.956 46.7709 135.637 47.304 136.748L48.2882 138.781L40.7018 142.523H40.71ZM42.8014 138.366C42.4323 137.595 41.7352 137.072 40.9069 137.479C40.4312 137.711 40.2425 138.084 40.2015 138.491C40.1687 138.956 40.3082 139.395 40.6772 140.159L41.1201 141.071L43.5313 139.885L42.8014 138.366V138.366ZM46.3772 137.13C45.959 136.259 45.6391 135.819 45.229 135.587C44.942 135.429 44.5073 135.33 43.9906 135.587C43.1541 136.002 43.0228 136.889 43.5723 138.034L44.2859 139.52L46.8939 138.234L46.369 137.138L46.3772 137.13Z" fill="#F7F7F7"/>
<path d="M36.1582 131.911L35.7974 130.849L43.7774 128.086L44.1382 129.148L36.1582 131.911Z" fill="#F7F7F7"/>
<path d="M38.4546 124.228L34.075 125.115L33.8618 124.02L38.1265 123.157C39.1435 122.95 39.7668 122.751 40.2015 122.402C40.6772 122.004 41.0216 121.307 40.8002 120.212C40.5951 119.191 40.0866 118.652 39.4141 118.444C38.8728 118.278 38.2003 118.37 37.2572 118.552L32.9514 119.423L32.7382 118.361L36.9947 117.498C38.1921 117.258 39.1353 117.142 39.9636 117.473C40.8658 117.847 41.5547 118.751 41.8172 120.046C42.0714 121.357 41.7679 122.435 41.079 123.116C40.4311 123.755 39.4879 124.012 38.4546 124.219V124.228Z" fill="#F7F7F7"/>
<path d="M32.0821 112.188L32.0083 109.881C31.9837 109.019 31.9919 108.197 32.3527 107.484C32.7136 106.762 33.3533 106.272 34.2801 106.239C35.1904 106.206 35.8876 106.637 36.2976 107.268C36.4945 107.566 36.6093 107.882 36.6749 108.239L40.3081 105.384L40.3491 106.737L36.8225 109.458L36.8717 110.91L40.4804 110.794L40.5132 111.914L32.0739 112.188H32.0821ZM35.9122 109.491C35.8876 108.736 35.7809 108.214 35.4775 107.832C35.2314 107.517 34.8788 107.342 34.4113 107.359C33.8782 107.376 33.4681 107.633 33.2303 108.089C33.0007 108.554 32.9843 109.101 33.0089 109.923L33.0417 111.026L35.9532 110.935L35.904 109.483L35.9122 109.491Z" fill="#F7F7F7"/>
<path d="M32.5577 96.3154C32.9022 93.8593 35.0428 92.2911 37.4704 92.6396C39.8898 92.9881 41.5137 95.104 41.1692 97.5517C40.8248 100.008 38.6842 101.576 36.2648 101.227C33.8454 100.879 32.2215 98.7631 32.5659 96.3154H32.5577ZM40.1523 97.4106C40.4147 95.5686 39.1435 94.017 37.3146 93.7515C35.4774 93.486 33.8371 94.6227 33.5747 96.4647C33.3123 98.3067 34.5835 99.8583 36.4124 100.124C38.2495 100.389 39.8898 99.2526 40.1523 97.4106Z" fill="#F7F7F7"/>
<path d="M38.389 78.9241L37.2982 81.571L36.3715 81.181L38.9795 74.8584L39.9063 75.2484L38.8155 77.8952L45.6719 80.791L45.2454 81.8282L38.389 78.9324V78.9241Z" fill="#F7F7F7"/>
<path d="M45.9918 72.7341L46.0656 74.0534L45.1798 73.514L45.1142 72.1947L41.522 70.0042L42.0961 69.0417L45.0568 70.8506L44.9584 69.0417L45.8441 69.5811L45.9425 71.3899L48.4604 72.9249L50.5189 69.4732L51.3801 69.9959L48.7556 74.4101L46.0082 72.7341H45.9918Z" fill="#F7F7F7"/>
<path d="M50.7158 63.9556L47.304 61.0432L48.0175 60.1886L51.3391 63.018C52.1346 63.6901 52.6759 64.0635 53.2172 64.1879C53.8241 64.3207 54.5704 64.1548 55.284 63.3001C55.9401 62.5036 56.0467 61.7568 55.7842 61.1096C55.571 60.5786 55.0871 60.0973 54.3572 59.475L50.9946 56.6125L51.6835 55.7827L55.0051 58.6038C55.9401 59.4004 56.6208 60.0725 56.875 60.9354C57.1539 61.8813 56.8832 62.9931 56.0467 64.0054C55.2019 65.026 54.1686 65.4574 53.2172 65.3413C52.3232 65.2251 51.5277 64.6443 50.724 63.9556H50.7158Z" fill="#F7F7F7"/>
<path d="M60.0408 52.613C59.3929 52.4305 58.7531 52.2314 58.1134 52.0322V52.0571C58.4251 52.4388 58.8434 52.9366 59.278 53.476L62.288 57.2015L61.4596 57.8902L56.1205 51.2855L56.9488 50.5968L61.9845 52.0405L61.5908 46.7634L62.411 46.083L67.7501 52.6877L66.8972 53.393L63.8872 49.6675C63.4526 49.1281 63.0589 48.622 62.7472 48.2154H62.7226C62.7883 48.8958 62.8539 49.5762 62.9031 50.2483L63.1409 53.4926L60.049 52.613H60.0408Z" fill="#F7F7F7"/>
<path d="M69.9563 41.3037L70.8831 40.7893L78.0019 46.5643L76.9604 47.1451L75.0002 45.5188L71.6704 47.3691L71.9657 49.9247L70.9733 50.4723L69.9481 41.3037H69.9563ZM71.5474 46.3236L74.2047 44.8467L72.7612 43.6353C72.2035 43.1706 71.6048 42.6645 71.0553 42.1833H71.0389C71.1455 42.93 71.2439 43.6934 71.3342 44.4733L71.5556 46.3236H71.5474Z" fill="#F7F7F7"/>
<path d="M82.2093 35.6117C83.0459 35.313 83.8988 35.2383 84.6452 35.3711L85.0552 36.5244C84.3089 36.2921 83.3903 36.2838 82.5456 36.5908C80.7331 37.2463 79.9457 39.08 80.5773 40.8639C81.2088 42.6478 82.9639 43.5688 84.8666 42.8885C85.7442 42.5732 86.4167 41.9923 86.8678 41.2539L87.2778 42.4155C86.7857 43.0544 85.9902 43.5771 85.1619 43.8841C82.7506 44.7554 80.3804 43.6186 79.5521 41.2622C78.7483 38.9721 79.7325 36.5078 82.2257 35.6034L82.2093 35.6117Z" fill="#F7F7F7"/>
<path d="M91.1817 41.9177L91.1653 41.8928L94.5278 33.6701L94.5114 33.6452L90.1237 34.4583L89.9432 33.4627L96.2419 32.2927L96.2583 32.3176L92.8958 40.5403L92.9122 40.5652L97.505 39.7106L97.6854 40.7063L91.1735 41.9177H91.1817Z" fill="#F7F7F7"/>
<path d="M101.827 31.7702L106.699 31.6125L106.732 32.6248L102.967 32.7493L103.049 35.3464L106.346 35.2385L106.379 36.2176L103.082 36.3254L103.172 39.2627L107.043 39.1383L107.076 40.1505L102.106 40.3082L101.835 31.7785L101.827 31.7702Z" fill="#F7F7F7"/>
<path d="M111.456 40.2915L112.546 31.8282L113.588 31.9692L116.483 37.1302C116.885 37.8355 117.287 38.5656 117.672 39.2958H117.697C117.779 38.549 117.877 37.6944 117.984 36.873L118.533 32.6164L119.6 32.7575L118.509 41.2208L117.467 41.0797L114.572 35.9188C114.17 35.2135 113.768 34.4833 113.383 33.7532H113.358C113.276 34.4999 113.178 35.3546 113.071 36.176L112.522 40.4325L111.456 40.2915V40.2915ZM116.294 31.4714L115.507 31.3718L116.647 29.5713L117.82 29.7289L116.303 31.4797L116.294 31.4714Z" fill="#F7F7F7"/>
<path d="M132.058 36.2175L134.1 37.0639C134.928 37.4123 135.715 37.7691 136.24 38.4329C136.765 39.0967 136.962 39.9265 136.585 40.8558C136.224 41.7519 135.51 42.258 134.731 42.3825C133.886 42.5152 132.96 42.175 131.959 41.7519L131.147 41.42L129.884 44.5398L128.859 44.1166L132.066 36.2175H132.058ZM132.451 40.9055C133.37 41.2872 133.903 41.4698 134.436 41.3868C134.92 41.3038 135.322 41.0134 135.535 40.4824C135.773 39.8933 135.658 39.3705 135.305 38.964C134.928 38.5242 134.362 38.2753 133.624 37.9766L132.697 37.5949L131.508 40.5322L132.443 40.9221L132.451 40.9055Z" fill="#F7F7F7"/>
<path d="M142.514 41.0715L144.466 42.2663C145.196 42.7144 145.877 43.1708 146.263 43.8594C146.664 44.5564 146.722 45.3696 146.238 46.1744C145.77 46.9627 145.032 47.3277 144.286 47.3194C143.925 47.3194 143.605 47.2448 143.277 47.112L143.663 51.7419L142.514 51.0367L142.178 46.5644L140.948 45.8093L139.078 48.9374L138.135 48.3566L142.506 41.0549L142.514 41.0715ZM142.662 45.7927C143.302 46.1827 143.794 46.3818 144.278 46.3238C144.671 46.2906 145.008 46.0831 145.246 45.6766C145.524 45.2119 145.533 44.7224 145.278 44.2743C145.016 43.8262 144.573 43.511 143.876 43.0878L142.941 42.5153L141.432 45.0377L142.662 45.7844V45.7927Z" fill="#F7F7F7"/>
<path d="M146.468 53.7996V53.7747L154.899 51.186V51.1611L151.495 48.2487L152.143 47.4771L157.039 51.6672V51.6921L148.608 54.2809V54.3058L152.176 57.3592L151.528 58.1309L146.468 53.8079V53.7996Z" fill="#F7F7F7"/>
<path d="M159.016 60.5287L160.41 54.9861L161.247 55.9735L160.615 58.4295C160.451 59.0518 160.287 59.6907 160.107 60.3296L160.123 60.3462C160.755 60.2632 161.394 60.1968 162.067 60.1222L164.552 59.8566L165.356 60.8025L159.754 61.3668L156.851 63.8892L156.129 63.0428L159.016 60.5287V60.5287Z" fill="#F7F7F7"/>
<path d="M162.469 68.3946C162.378 69.3986 162.698 70.4026 163.092 71.0498C163.625 71.9127 164.388 72.2778 165.167 71.78C166.085 71.1992 165.716 70.245 165.396 69.1331C165.052 67.93 164.855 66.6771 166.159 65.8557C167.422 65.0591 168.726 65.5238 169.604 66.9343C170.022 67.6147 170.358 68.5357 170.358 69.3488L169.374 69.9711C169.423 69.0252 169.12 68.071 168.734 67.457C168.234 66.6439 167.537 66.2954 166.807 66.7601C165.921 67.3243 166.29 68.2536 166.586 69.2908C166.938 70.5271 167.168 71.8298 165.807 72.6927C164.502 73.5224 163.133 73.0329 162.239 71.5891C161.804 70.8922 161.468 69.9214 161.452 69.0584L162.477 68.4112L162.469 68.3946Z" fill="#F7F7F7"/>
<path d="M173.475 74.3188L173.942 75.3311L166.315 78.9654L165.839 77.9531L173.475 74.3188V74.3188Z" fill="#F7F7F7"/>
<path d="M176.239 80.824L177.789 85.4954L176.837 85.819L175.64 82.2096L173.212 83.0394L174.262 86.2007L173.344 86.516L172.294 83.3547L169.538 84.2923L170.768 88.0012L169.817 88.3248C169.292 87.7938 168.611 87.5863 168.16 87.744C167.84 87.8518 167.685 88.1257 167.808 88.499C167.849 88.6235 167.931 88.7894 168.029 88.9388L167.365 89.1628C167.25 89.0052 167.135 88.7977 167.053 88.5737C166.799 87.8021 167.102 87.1632 167.734 86.9474C168.242 86.7732 168.866 86.881 169.432 87.2544L169.448 87.2378L168.226 83.5621L176.222 80.8406L176.239 80.824Z" fill="#F7F7F7"/>
<path d="M180.044 95.162C180.225 96.2573 180.044 97.1949 179.782 97.8587L178.543 98.0661C178.986 97.2945 179.191 96.3071 179.027 95.3031C178.699 93.3283 177.026 92.2331 175.205 92.5484C173.434 92.8471 172.113 94.3655 172.466 96.4564C172.573 97.1036 172.827 97.6844 173.147 98.1076L175.091 97.7757L174.779 95.8922L175.73 95.7263L176.231 98.7133L172.794 99.2941C172.163 98.6386 171.654 97.6015 171.474 96.5228C171.064 94.0336 172.54 91.8597 175.009 91.4365C177.453 91.0217 179.618 92.5318 180.052 95.1455L180.044 95.162Z" fill="#F7F7F7"/>
<path d="M175.591 104.198L174.845 103.111H175.878L176.624 104.189L180.815 104.156V105.276L177.362 105.31L178.379 106.795H177.346L176.329 105.318L173.393 105.343L173.426 109.375H172.425L172.384 104.231L175.591 104.206V104.198Z" fill="#F7F7F7"/>
<path d="M175.714 115.507L180.717 112.844L180.553 114.13L178.322 115.3C177.756 115.59 177.174 115.897 176.591 116.187V116.212C177.075 116.635 177.551 117.059 178.051 117.523L179.905 119.216L179.749 120.452L175.583 116.619L171.794 116.121L171.933 115.009L175.714 115.499V115.507Z" fill="#F7F7F7"/>
<path d="M177.674 129.198C177.42 130.061 176.977 130.799 176.427 131.338L175.263 130.99C175.886 130.509 176.436 129.762 176.69 128.899C177.239 127.032 176.231 125.306 174.434 124.767C172.63 124.228 170.867 125.124 170.293 127.082C170.03 127.986 170.096 128.882 170.424 129.679L169.251 129.33C169.03 128.55 169.079 127.596 169.333 126.733C170.063 124.244 172.368 122.975 174.738 123.688C177.042 124.377 178.437 126.642 177.682 129.206L177.674 129.198Z" fill="#F7F7F7"/>
<path d="M174.705 137.113L174.213 138.117L171.023 136.524L168.989 140.69L172.179 142.283L171.687 143.287L164.117 139.511L164.609 138.507L168.095 140.242L170.129 136.076L166.643 134.342L167.135 133.338L174.705 137.113Z" fill="#F7F7F7"/>
<path d="M91.5512 146.763L92.0925 146.987L92.0679 152.073L91.461 151.816L91.4856 150.406L89.5583 149.593L88.5741 150.597L88 150.356L91.5594 146.763H91.5512ZM89.9519 149.178L91.4938 149.833L91.5184 148.788C91.5184 148.381 91.5348 147.95 91.5512 147.543H91.543C91.2642 147.834 90.9771 148.141 90.6737 148.448L89.9601 149.178H89.9519Z" fill="#F7F7F7"/>
<path d="M96.1112 148.456L97.3497 148.763C97.9484 148.912 98.4651 149.144 98.8505 149.534C99.4 150.09 99.5887 150.887 99.4 151.675C99.2114 152.43 98.7275 153.028 98.055 153.293C97.4891 153.517 96.8658 153.484 96.0866 153.293L94.9958 153.019L96.1112 148.456ZM96.3081 152.77C96.8494 152.903 97.3005 152.945 97.7187 152.804C98.219 152.638 98.6455 152.19 98.8013 151.551C98.9653 150.887 98.7685 150.314 98.4241 149.949C98.096 149.584 97.6285 149.418 97.1446 149.294L96.5623 149.153L95.7094 152.629L96.2999 152.779L96.3081 152.77Z" fill="#F7F7F7"/>
<path d="M107.06 152.97C107.601 152.339 107.856 151.941 107.864 151.493C107.872 150.945 107.503 150.646 106.962 150.638C106.634 150.638 106.248 150.738 105.92 150.97V150.348C106.174 150.198 106.56 150.057 107.011 150.066C107.831 150.082 108.495 150.563 108.479 151.468C108.471 152.115 108.11 152.646 107.552 153.293L106.724 154.256V154.272L108.594 154.305V154.861L105.502 154.803V154.787L107.06 152.953V152.97Z" fill="#F7F7F7"/>
<path d="M112.161 154.173C111.817 153.791 111.596 153.169 111.505 152.381C111.415 151.592 111.481 150.937 111.735 150.489C111.965 150.082 112.35 149.842 112.809 149.783C113.269 149.725 113.695 149.875 114.007 150.215C114.351 150.597 114.564 151.219 114.655 152.007C114.745 152.795 114.679 153.451 114.425 153.899C114.195 154.306 113.81 154.546 113.351 154.604C112.891 154.654 112.465 154.513 112.153 154.173H112.161ZM113.9 153.65C114.13 153.268 114.122 152.646 114.056 152.09C113.99 151.526 113.859 150.92 113.547 150.605C113.375 150.431 113.146 150.331 112.875 150.364C112.604 150.397 112.407 150.547 112.276 150.754C112.047 151.136 112.055 151.758 112.12 152.314C112.186 152.87 112.317 153.484 112.629 153.799C112.801 153.974 113.031 154.073 113.301 154.04C113.572 154.007 113.769 153.857 113.9 153.65Z" fill="#F7F7F7"/>
<path d="M118.452 153.144C118.058 152.82 117.763 152.231 117.566 151.459C117.369 150.696 117.353 150.032 117.542 149.551C117.714 149.12 118.058 148.821 118.509 148.705C118.96 148.589 119.395 148.672 119.756 148.97C120.15 149.294 120.445 149.883 120.642 150.655C120.839 151.418 120.855 152.082 120.666 152.563C120.494 152.994 120.15 153.293 119.699 153.409C119.247 153.525 118.813 153.443 118.452 153.144ZM120.1 152.38C120.273 151.974 120.182 151.36 120.043 150.812C119.904 150.265 119.69 149.684 119.346 149.41C119.149 149.261 118.911 149.194 118.649 149.261C118.378 149.327 118.206 149.501 118.107 149.734C117.935 150.14 118.025 150.754 118.165 151.302C118.304 151.849 118.518 152.43 118.87 152.704C119.067 152.853 119.305 152.92 119.567 152.853C119.838 152.787 120.01 152.613 120.109 152.38H120.1Z" fill="#F7F7F7"/>
<path d="M123.89 147.809L123.053 148.597L122.832 148.049L124.144 146.813L125.899 151.244L125.333 151.476L123.881 147.817L123.89 147.809Z" fill="#F7F7F7"/>
<path d="M72.9203 165.175L74.9378 166.27C75.9056 166.793 76.7094 167.424 77.2096 168.278C77.9232 169.498 77.9068 170.95 77.226 172.236C76.5781 173.464 75.4709 174.277 74.1833 174.435C73.1089 174.568 72.0345 174.236 70.7715 173.547L69 172.585L72.9203 165.175V165.175ZM71.3866 172.751C72.2642 173.232 73.0351 173.497 73.8224 173.439C74.7574 173.365 75.6924 172.792 76.2419 171.747C76.8078 170.668 76.7175 169.589 76.2911 168.793C75.881 168.021 75.1429 167.515 74.3555 167.083L73.4124 166.577L70.4188 172.228L71.3784 172.751H71.3866Z" fill="#F7F7F7"/>
<path d="M85.4439 171.008L86.4363 171.348L87.035 180.426L85.9278 180.044L85.7884 177.521L82.2454 176.31L80.6133 178.227L79.5553 177.87L85.4439 171.008V171.008ZM82.9015 175.522L85.731 176.484L85.6408 174.617C85.5998 173.896 85.567 173.124 85.5424 172.394H85.5177C85.0585 172.958 84.5746 173.539 84.0825 174.128L82.9015 175.53V175.522Z" fill="#F7F7F7"/>
<path d="M97.3195 173.813C98.3857 173.987 99.1977 174.443 99.7308 174.908L99.5339 176.144C98.9598 175.489 98.1151 174.974 97.1391 174.817C95.2118 174.51 93.6781 175.746 93.3911 177.571C93.1122 179.339 94.1046 181.064 96.1385 181.388C96.7783 181.488 97.3852 181.438 97.8772 181.264L98.1807 179.322L96.3436 179.023L96.4912 178.069L99.4109 178.534L98.8778 181.969C98.0741 182.359 96.9505 182.516 95.9007 182.351C93.4731 181.961 91.9312 179.878 92.3085 177.414C92.6939 174.966 94.7607 173.398 97.3195 173.804V173.813Z" fill="#F7F7F7"/>
<path d="M104.619 179.355L107.35 179.397L107.333 180.326L104.602 180.285L104.619 179.355Z" fill="#F7F7F7"/>
<path d="M114.821 177.737C114.37 177.248 113.936 176.75 113.493 176.244L113.468 176.26C113.55 176.75 113.649 177.38 113.739 178.061L114.379 182.757L113.329 182.907L112.189 174.576L113.239 174.427L116.741 178.252L119.086 173.605L120.12 173.464L121.26 181.795L120.177 181.944L119.537 177.248C119.447 176.567 119.365 175.937 119.316 175.439H119.291C119.004 176.036 118.717 176.634 118.414 177.231L116.97 180.085L114.821 177.737Z" fill="#F7F7F7"/>
<path d="M127.353 171.448L128.346 171.116L134.201 178.028L133.086 178.401L131.479 176.468L127.919 177.654L127.747 180.185L126.689 180.533L127.345 171.464L127.353 171.448ZM127.993 176.609L130.831 175.663L129.65 174.219C129.19 173.663 128.707 173.066 128.255 172.493H128.231C128.198 173.232 128.157 173.995 128.108 174.767L127.993 176.601V176.609Z" fill="#F7F7F7"/>
<path d="M135.382 168.328L137.384 167.274C138.13 166.884 138.852 166.536 139.631 166.561C140.418 166.577 141.123 166.943 141.55 167.764C141.96 168.569 141.886 169.382 141.501 170.013C141.32 170.32 141.091 170.552 140.812 170.768L144.863 172.809L143.691 173.423L139.795 171.415L138.54 172.07L140.18 175.265L139.213 175.771L135.374 168.312L135.382 168.328ZM139.385 170.627C140.041 170.286 140.451 169.963 140.656 169.523C140.828 169.175 140.828 168.776 140.615 168.361C140.369 167.888 139.967 167.631 139.467 167.615C138.958 167.615 138.474 167.822 137.761 168.195L136.801 168.702L138.13 171.282L139.385 170.627Z" fill="#F7F7F7"/>
<path d="M106.795 164.835C138.162 164.835 163.59 139.109 163.59 107.375C163.59 75.6416 138.162 49.9163 106.795 49.9163C75.428 49.9163 50 75.6416 50 107.375C50 139.109 75.428 164.835 106.795 164.835Z" stroke="#F7F7F7" stroke-width="1.5" stroke-miterlimit="10"/>
</g>
<defs>
<clipPath id="clip0_315_1079">
<rect width="171" height="173" fill="white" transform="translate(21 21)"/>
</clipPath>
</defs>
</svg>
